<svg width="583" height="242" viewBox="0 0 583 242" fill="none" xmlns="http://www.w3.org/2000/svg">
<path d="M149.875 138.25V155.375H114.125V173.875H140.875V190.5H114.125V226H92.75V138.25H149.875ZM192.859 227C186.026 227 179.859 225.542 174.359 222.625C168.943 219.708 164.651 215.542 161.484 210.125C158.401 204.708 156.859 198.375 156.859 191.125C156.859 183.958 158.443 177.667 161.609 172.25C164.776 166.75 169.109 162.542 174.609 159.625C180.109 156.708 186.276 155.25 193.109 155.25C199.943 155.25 206.109 156.708 211.609 159.625C217.109 162.542 221.443 166.75 224.609 172.25C227.776 177.667 229.359 183.958 229.359 191.125C229.359 198.292 227.734 204.625 224.484 210.125C221.318 215.542 216.943 219.708 211.359 222.625C205.859 225.542 199.693 227 192.859 227ZM192.859 208.5C196.943 208.5 200.401 207 203.234 204C206.151 201 207.609 196.708 207.609 191.125C207.609 185.542 206.193 181.25 203.359 178.25C200.609 175.25 197.193 173.75 193.109 173.75C188.943 173.75 185.484 175.25 182.734 178.25C179.984 181.167 178.609 185.458 178.609 191.125C178.609 196.708 179.943 201 182.609 204C185.359 207 188.776 208.5 192.859 208.5ZM272.449 227C265.616 227 259.449 225.542 253.949 222.625C248.533 219.708 244.241 215.542 241.074 210.125C237.991 204.708 236.449 198.375 236.449 191.125C236.449 183.958 238.033 177.667 241.199 172.25C244.366 166.75 248.699 162.542 254.199 159.625C259.699 156.708 265.866 155.25 272.699 155.25C279.533 155.25 285.699 156.708 291.199 159.625C296.699 162.542 301.033 166.75 304.199 172.25C307.366 177.667 308.949 183.958 308.949 191.125C308.949 198.292 307.324 204.625 304.074 210.125C300.908 215.542 296.533 219.708 290.949 222.625C285.449 225.542 279.283 227 272.449 227ZM272.449 208.5C276.533 208.5 279.991 207 282.824 204C285.741 201 287.199 196.708 287.199 191.125C287.199 185.542 285.783 181.25 282.949 178.25C280.199 175.25 276.783 173.75 272.699 173.75C268.533 173.75 265.074 175.25 262.324 178.25C259.574 181.167 258.199 185.458 258.199 191.125C258.199 196.708 259.533 201 262.199 204C264.949 207 268.366 208.5 272.449 208.5ZM316.039 191C316.039 183.833 317.372 177.542 320.039 172.125C322.789 166.708 326.497 162.542 331.164 159.625C335.831 156.708 341.039 155.25 346.789 155.25C351.372 155.25 355.539 156.208 359.289 158.125C363.122 160.042 366.122 162.625 368.289 165.875V133.5H389.664V226H368.289V216C366.289 219.333 363.414 222 359.664 224C355.997 226 351.706 227 346.789 227C341.039 227 335.831 225.542 331.164 222.625C326.497 219.625 322.789 215.417 320.039 210C317.372 204.5 316.039 198.167 316.039 191ZM368.289 191.125C368.289 185.792 366.789 181.583 363.789 178.5C360.872 175.417 357.289 173.875 353.039 173.875C348.789 173.875 345.164 175.417 342.164 178.5C339.247 181.5 337.789 185.667 337.789 191C337.789 196.333 339.247 200.583 342.164 203.75C345.164 206.833 348.789 208.375 353.039 208.375C357.289 208.375 360.872 206.833 363.789 203.75C366.789 200.667 368.289 196.458 368.289 191.125Z" fill="#2F2F2F"/>
<path d="M28.75 138.25V190.75C28.75 196 30.0417 200.042 32.625 202.875C35.2083 205.708 39 207.125 44 207.125C49 207.125 52.8333 205.708 55.5 202.875C58.1667 200.042 59.5 196 59.5 190.75V138.25H80.875V190.625C80.875 198.458 79.2083 205.083 75.875 210.5C72.5417 215.917 68.0417 220 62.375 222.75C56.7917 225.5 50.5417 226.875 43.625 226.875C36.7083 226.875 30.5 225.542 25 222.875C19.5833 220.125 15.2917 216.042 12.125 210.625C8.95833 205.125 7.375 198.458 7.375 190.625V138.25H28.75Z" fill="#FF7E00"/>
<path d="M417.118 156.35C425.615 170.798 451.06 192.733 484.864 164.889M484.864 164.889C527.118 130.084 485.362 106.093 460.177 122.315C434.991 138.537 455.805 168.918 484.864 164.889ZM484.864 164.889C496.666 165.039 523.254 162.17 535.19 149.495C550.11 133.651 542.5 97.4384 531 77.4384" stroke="#C4C4C4" stroke-opacity="0.7" stroke-width="3" stroke-dasharray="9 9"/>
<path d="M511.447 51.669C511.87 44.9536 519.889 41.7281 524.844 46.2808L540.458 60.628C544.79 64.6084 543.489 71.7458 538.031 73.941L521.084 80.7568C515.626 82.952 509.745 78.7034 510.115 72.8321L511.447 51.669Z" fill="#C4C4C4" fill-opacity="0.7"/>
</svg>
